STARTFONT 2.1
COMMENT
COMMENT Converted from OpenType font "Q:\font stuff\winfont\Luftwaffe Regular.ttf" by "otf2bdf 3.0".
COMMENT
FONT -FreeType-Luftwaffe-Medium-R-Normal--32-320-72-72-P-102-ISO10646-1
SIZE 32 72 72
FONTBOUNDINGBOX 36 33 -4 -7
STARTPROPERTIES 19
FOUNDRY "FreeType"
FAMILY_NAME "Luftwaffe"
WEIGHT_NAME "Medium"
SLANT "R"
SETWIDTH_NAME "Normal"
ADD_STYLE_NAME ""
PIXEL_SIZE 32
POINT_SIZE 320
RESOLUTION_X 72
RESOLUTION_Y 72
SPACING "P"
AVERAGE_WIDTH 102
CHARSET_REGISTRY "ISO10646"
CHARSET_ENCODING "1"
FONT_ASCENT 26
FONT_DESCENT 7
COPYRIGHT "More KeyFonts TM SoftKey Software Products, Inc.  Copyright (c)1992 W.S.I.  All Rights Reserved.  Redistribution strictly prohibited.  RWE"
_OTF_FONTFILE "Q:\font stuff\winfont\Luftwaffe Regular.ttf"
_OTF_PSNAME "Luftwaffe"
ENDPROPERTIES
CHARS 231
STARTCHAR 0020
ENCODING 32
SWIDTH 312 0
DWIDTH 10 0
BBX 0 0 0 0
BITMAP
ENDCHAR
STARTCHAR 0021
ENCODING 33
SWIDTH 375 0
DWIDTH 12 0
BBX 5 22 3 0
BITMAP
F0
F0
F0
F8
F8
F0
F0
F0
70
70
70
30
20
20
20
00
20
70
F8
F8
70
20
ENDCHAR
STARTCHAR 0022
ENCODING 34
SWIDTH 437 0
DWIDTH 14 0
BBX 11 10 2 12
BITMAP
2080
6180
F3C0
FBE0
71C0
6180
6080
2080
2080
2080
ENDCHAR
STARTCHAR 0023
ENCODING 35
SWIDTH 625 0
DWIDTH 20 0
BBX 14 21 3 1
BITMAP
0E38
0E38
0E38
0E78
0E70
7FFC
7FFC
7FFC
1C70
1C70
1C70
18E0
FFF8
FFF8
FFF8
38E0
38E0
38E0
31C0
71C0
71C0
ENDCHAR
STARTCHAR 0024
ENCODING 36
SWIDTH 625 0
DWIDTH 20 0
BBX 17 31 2 -5
BITMAP
008000
008000
008000
00C000
07F800
1C9E00
308700
608F00
E09F00
E09F00
F09F00
F88000
7FC000
7FF000
3FFC00
0FFF00
03FF00
70BF80
F88F80
F88780
F88380
F88380
608300
208600
188C00
07F000
008000
008000
008000
008000
008000
ENDCHAR
STARTCHAR 0025
ENCODING 37
SWIDTH 812 0
DWIDTH 26 0
BBX 24 21 1 -1
BITMAP
1F0020
39C040
79E0C0
F9F080
F9F100
F9F300
F9F200
F9F400
79EC00
39C9F0
1F139C
00179E
002F9E
006F9F
004F9F
008F9F
018F9F
010F9E
02079E
02039C
0401F0
ENDCHAR
STARTCHAR 0026
ENCODING 38
SWIDTH 812 0
DWIDTH 26 0
BBX 25 23 1 -1
BITMAP
00F80000
03C40000
07820000
0F821E00
0F823300
0F846780
0FEC4F80
0FF0CF80
07FC8F00
0FFE8600
1BFF8000
39FFE000
78FFF000
F83FF000
FC1FF800
FC07F800
FE05F800
FF89F800
7FF8F800
7FF0F000
3FE0F000
0FC1E000
00038000
ENDCHAR
STARTCHAR 0027
ENCODING 39
SWIDTH 281 0
DWIDTH 9 0
BBX 5 10 2 12
BITMAP
20
20
70
F8
70
70
20
20
20
20
ENDCHAR
STARTCHAR 0028
ENCODING 40
SWIDTH 343 0
DWIDTH 11 0
BBX 11 29 0 -7
BITMAP
0020
00C0
0300
0600
0E00
1E00
3C00
3C00
7C00
7C00
7C00
FC00
FC00
FC00
FC00
FC00
FC00
FC00
7C00
7C00
7C00
3C00
3C00
1E00
0E00
0600
0300
0180
0060
ENDCHAR
STARTCHAR 0029
ENCODING 41
SWIDTH 343 0
DWIDTH 11 0
BBX 11 29 0 -7
BITMAP
8000
6000
1800
0C00
0E00
0F00
0780
0780
07C0
07C0
07C0
07E0
07E0
07E0
07E0
07E0
07E0
07E0
07C0
07C0
07C0
0780
0780
0F00
0E00
0C00
1800
2000
C000
ENDCHAR
STARTCHAR 002A
ENCODING 42
SWIDTH 406 0
DWIDTH 13 0
BBX 11 11 1 11
BITMAP
0E00
EE60
F6E0
7FE0
0580
0F80
FDE0
F6E0
EE60
0E00
0E00
ENDCHAR
STARTCHAR 002B
ENCODING 43
SWIDTH 562 0
DWIDTH 18 0
BBX 15 16 1 0
BITMAP
0380
0380
0380
0380
0380
0380
0380
FFFE
FFFE
FFFE
0380
0380
0380
0380
0380
0380
ENDCHAR
STARTCHAR 002C
ENCODING 44
SWIDTH 312 0
DWIDTH 10 0
BBX 6 11 2 -6
BITMAP
30
78
FC
78
30
30
20
20
20
40
80
ENDCHAR
STARTCHAR 002D
ENCODING 45
SWIDTH 406 0
DWIDTH 13 0
BBX 8 3 2 7
BITMAP
FF
FF
FF
ENDCHAR
STARTCHAR 002E
ENCODING 46
SWIDTH 312 0
DWIDTH 10 0
BBX 6 5 2 1
BITMAP
30
FC
FC
30
10
ENDCHAR
STARTCHAR 002F
ENCODING 47
SWIDTH 250 0
DWIDTH 8 0
BBX 9 22 0 -1
BITMAP
0380
0300
0300
0700
0600
0600
0E00
0E00
0C00
0C00
1C00
1800
1800
3800
3000
3000
3000
6000
6000
6000
E000
C000
ENDCHAR
STARTCHAR 0030
ENCODING 48
SWIDTH 625 0
DWIDTH 20 0
BBX 18 21 1 0
BITMAP
03F000
0F3C00
1E1E00
3E1F00
7E1F80
7E1F80
FE1FC0
FE1FC0
FE1FC0
FE1FC0
FE1FC0
FE1FC0
FE1FC0
FE1FC0
7E1FC0
7E1F80
7E1F80
3E1F00
1E1E00
0F3C00
03F000
ENDCHAR
STARTCHAR 0031
ENCODING 49
SWIDTH 625 0
DWIDTH 20 0
BBX 13 21 3 0
BITMAP
0180
0380
0780
0F80
FF80
0F80
0F80
0F80
0F80
0F80
0F80
0F80
0F80
0F80
0F80
0F80
0F80
0F80
0F80
0F80
7FF8
ENDCHAR
STARTCHAR 0032
ENCODING 50
SWIDTH 625 0
DWIDTH 20 0
BBX 17 21 1 -1
BITMAP
0FF000
307C00
603F00
FC1F00
FE1F80
FE1F80
7E1F80
3C1F80
003F80
007F00
00FE00
01F800
03C080
040080
180180
1FFF80
6FFF80
43FF00
61FF00
60FE00
603C00
ENDCHAR
STARTCHAR 0033
ENCODING 51
SWIDTH 625 0
DWIDTH 20 0
BBX 17 21 2 0
BITMAP
0FE000
307C00
703E00
7C3E00
7E1F00
7C1F00
381E00
003E00
003800
1FE000
00FC00
007E00
007F00
707F00
F83F80
FC3F80
F83F00
F07F00
E07E00
20FC00
1FE000
ENDCHAR
STARTCHAR 0034
ENCODING 52
SWIDTH 625 0
DWIDTH 20 0
BBX 18 21 1 0
BITMAP
003C00
007C00
007C00
00FC00
01FC00
017C00
027C00
067C00
0C7C00
087C00
107C00
307C00
207C00
407C00
C07C00
FFFFC0
007C00
007C00
007C00
007C00
07FFC0
ENDCHAR
STARTCHAR 0035
ENCODING 53
SWIDTH 625 0
DWIDTH 20 0
BBX 17 22 2 0
BITMAP
000C00
780800
7FF800
7FF800
7FF000
3FE000
2FC000
23F000
3CFC00
607E00
407F00
407F00
007F00
003F80
783F80
F83F00
FC7F00
F87F00
F87E00
E07C00
60F800
1FC000
ENDCHAR
STARTCHAR 0036
ENCODING 54
SWIDTH 625 0
DWIDTH 20 0
BBX 18 21 1 0
BITMAP
01FC00
078F00
0F0F00
1F1F00
3F0F00
3F0000
7F0000
7F7C00
7F9E00
7F1F00
FF1F80
7F1F80
7F1F80
7F1FC0
7F1F80
7F1F80
3F1F80
1F1F00
1F1F00
071C00
03F000
ENDCHAR
STARTCHAR 0037
ENCODING 55
SWIDTH 625 0
DWIDTH 20 0
BBX 16 21 2 0
BITMAP
C786
CFC7
DFF3
DFF9
FFFD
FFFF
C1FA
C006
800C
8038
00F8
03F0
07F0
0FE0
0FE0
0FE0
1FE0
1FE0
0FE0
0FE0
07C0
ENDCHAR
STARTCHAR 0038
ENCODING 56
SWIDTH 625 0
DWIDTH 20 0
BBX 18 21 1 0
BITMAP
07F000
1C0E00
300700
700380
F00380
F80380
FE0300
FFC600
FFF800
7FFE00
7FFF80
3FFF80
0FFFC0
71FFC0
E01FC0
E007C0
E003C0
E00380
700300
380E00
07F800
ENDCHAR
STARTCHAR 0039
ENCODING 57
SWIDTH 625 0
DWIDTH 20 0
BBX 18 21 1 0
BITMAP
03F000
0E3C00
3E3E00
7E3F00
7E3F00
7C3F80
FC3F80
FC3F80
7C3FC0
7E3FC0
7E3FC0
3E7FC0
0FBF80
003F80
003F80
3C3F80
3C3F00
7C3E00
3C3C00
3C7800
0FE000
ENDCHAR
STARTCHAR 003A
ENCODING 58
SWIDTH 312 0
DWIDTH 10 0
BBX 6 16 2 1
BITMAP
30
FC
FC
30
10
00
00
00
00
00
00
30
FC
FC
30
10
ENDCHAR
STARTCHAR 003B
ENCODING 59
SWIDTH 312 0
DWIDTH 10 0
BBX 6 23 2 -6
BITMAP
30
FC
FC
30
10
00
00
00
00
00
30
78
FC
78
38
30
30
20
20
20
40
40
80
ENDCHAR
STARTCHAR 003C
ENCODING 60
SWIDTH 562 0
DWIDTH 18 0
BBX 15 16 1 1
BITMAP
0006
000E
003C
00FC
03F0
0FC0
3F80
FE00
F800
FC00
FF00
1FE0
07F8
00FE
003E
0006
ENDCHAR
STARTCHAR 003D
ENCODING 61
SWIDTH 593 0
DWIDTH 19 0
BBX 16 10 1 3
BITMAP
FFFF
FFFF
FFFF
0000
0000
0000
0000
FFFF
FFFF
FFFF
ENDCHAR
STARTCHAR 003E
ENCODING 62
SWIDTH 562 0
DWIDTH 18 0
BBX 15 16 1 1
BITMAP
4000
7000
7800
7E00
1F80
07E0
03F8
00FE
003E
007E
01FE
0FF8
3FC0
FE00
F800
C000
ENDCHAR
STARTCHAR 003F
ENCODING 63
SWIDTH 437 0
DWIDTH 14 0
BBX 12 22 0 0
BITMAP
1F80
63E0
79F0
F9F0
79F0
79F0
01F0
03E0
03C0
0700
0600
0440
0440
0440
0380
0000
0200
0300
0FC0
0FC0
0300
0300
ENDCHAR
STARTCHAR 0040
ENCODING 64
SWIDTH 781 0
DWIDTH 25 0
BBX 22 22 1 0
BITMAP
00FE00
03FFC0
0F80E0
1E0030
3C0818
381E0C
787F8C
71EF8C
71EF8C
73EF8C
F3EF8C
F3EF8C
73EF9C
73EF98
73EFB8
71F7F0
39E7E0
38C300
1C0000
0E0020
0381C0
00FE00
ENDCHAR
STARTCHAR 0041
ENCODING 65
SWIDTH 750 0
DWIDTH 24 0
BBX 23 21 0 0
BITMAP
0FC20E
33E138
41F178
40F9F0
60F9F0
F8F9F0
F8F9F0
FCF9F0
FCF9F0
7CF9F0
3CF9F0
0CF1F0
0CE1F0
18C1F0
3101F0
03C1F0
07E3F0
0FF7F8
1FF9FC
21F0F8
404060
ENDCHAR
STARTCHAR 0042
ENCODING 66
SWIDTH 812 0
DWIDTH 26 0
BBX 25 22 0 0
BITMAP
07C1F000
3BF6F800
21FC7C00
60F87C00
70F87C00
F0F87C00
F8F83E00
78F80F80
78F8F800
38FFFC00
18F9FF00
18F07F00
10E01F00
60800F00
07C00700
1FE00700
3FF80600
27FC0600
21FE0400
40FF9800
003FE000
001F8000
ENDCHAR
STARTCHAR 0043
ENCODING 67
SWIDTH 718 0
DWIDTH 23 0
BBX 23 22 1 1
BITMAP
03F0C0
0F8BE0
1F07FE
3F09FC
7E18F8
7E3C00
FE3C00
FE3E00
FE3F00
FE3F00
FE3F80
FE1F80
FE1FC0
FE8FC0
FE4FC0
7E4780
7E2F84
3F1E08
1F0008
0F8010
03E060
00FF80
ENDCHAR
STARTCHAR 0044
ENCODING 68
SWIDTH 781 0
DWIDTH 25 0
BBX 23 22 0 0
BITMAP
01FE00
0FFF80
1FFFE0
3FFFF0
7FFFF8
7821FC
60207C
C0781E
807E0E
40FF06
607F02
1C7F02
003F02
000F02
07C602
0FF402
1FFC04
3FFF0C
47FFF8
41FFF0
407FE0
001F80
ENDCHAR
STARTCHAR 0045
ENCODING 69
SWIDTH 781 0
DWIDTH 25 0
BBX 24 22 1 1
BITMAP
03F0C0
0F0BE1
1E07FE
3E19FC
7E38F8
7C7C00
FC7C3C
FC7E6E
FC7F5F
FC7F5F
FC3FDF
FC3FDE
FC9FC0
FC8FC0
FC8FC0
7C4780
7C6780
3E3E00
1E0008
0F0010
03C060
00FF80
ENDCHAR
STARTCHAR 0046
ENCODING 70
SWIDTH 718 0
DWIDTH 23 0
BBX 22 29 0 -7
BITMAP
07E000
1FF818
3FFE04
7FFF84
7FFFC4
60FFFC
C01FF8
8003F0
400238
40445C
218EBC
1F0EBC
000FFC
1F1FC0
278FC0
47CFE0
07CFE0
0FC7F0
0FC7F0
1FC3F0
1F83F0
3F81F0
3F01F0
1F01F0
1E01F0
0F01E0
0701C0
038780
00FC00
ENDCHAR
STARTCHAR 0047
ENCODING 71
SWIDTH 875 0
DWIDTH 28 0
BBX 26 22 1 0
BITMAP
01F88700
07873800
0F0D7E00
1E19FF00
3E38FF00
7C3C7F00
7C7C3E00
7C7E1C00
FC7E3E00
FC7FDF80
FC3F8F80
FC3F8FC0
FC1F8FC0
FC9F8FC0
7C8F8FC0
7C4F8FC0
3E670F80
3E1E0F80
1F001F00
0F803C00
03C0F800
007FC000
ENDCHAR
STARTCHAR 0048
ENCODING 72
SWIDTH 843 0
DWIDTH 27 0
BBX 25 29 0 -6
BITMAP
00020000
000F0000
007F8400
019FF800
078FF000
0F07C000
1F800000
1F81F800
1F87FE00
1FCFFF00
1FF0FF00
0FE03F80
0FF01F80
07F00F80
7BF00F80
7BF00F80
F9F00F80
79F00F80
71E00F00
33C00E00
1F000C00
001F1000
007FA000
00FF4000
008C0000
01800000
00804000
00C08000
003F0000
ENDCHAR
STARTCHAR 0049
ENCODING 73
SWIDTH 656 0
DWIDTH 21 0
BBX 20 23 0 -1
BITMAP
07E040
0FFE20
3FFFE0
3FFFE0
20FFE0
600FC0
200000
2007C0
1F8F20
001F10
001F00
003F80
001F80
001FC0
000FC0
3E0FE0
4F07E0
4F87E0
8F83E0
8783E0
03C3C0
03E380
00FE00
ENDCHAR
STARTCHAR 004A
ENCODING 74
SWIDTH 656 0
DWIDTH 21 0
BBX 21 29 -1 -7
BITMAP
03E000
0FF800
1FFE00
1FFF08
31FFD8
207FF0
203FF0
200FE0
2003C0
3001E0
182790
07CF88
000FC0
000FC0
000FE0
000FE0
000FF0
0007F0
3C07F0
FE03F8
9F03F8
9F03F8
9F81F8
8F81F0
0F80F0
0FC0E0
07C1C0
03E180
00FE00
ENDCHAR
STARTCHAR 004B
ENCODING 75
SWIDTH 718 0
DWIDTH 23 0
BBX 22 21 0 0
BITMAP
00FF00
03C0C0
0F1F30
1E7F98
3EFFC8
3CC7EC
7C83E4
7F83E4
3F03E4
3F0300
3FCF80
1FBFC0
0FCFC0
07CFC0
03CFC0
01CFC0
78C7C0
F8C7E0
78C7FC
7883F0
3F01C0
ENDCHAR
STARTCHAR 004C
ENCODING 76
SWIDTH 593 0
DWIDTH 19 0
BBX 18 22 0 0
BITMAP
03F000
0E0E00
1C0700
380780
380780
7C0F80
7E0F80
7F1F80
7F1F00
3FBF00
3FBE00
1F9E40
0F1C80
060F00
080000
0E0000
1F8000
3FC080
DFF080
87FF00
83FE00
00FC00
ENDCHAR
STARTCHAR 004D
ENCODING 77
SWIDTH 1031 0
DWIDTH 33 0
BBX 32 21 0 0
BITMAP
0F87E1F0
73C9F6F8
43E8FC7C
41F8FC7C
F1F87C7C
F8F87C7C
FCF87C7C
FCF87C1F
7EF87C0C
3EF87C78
1CF87CF8
0CF878F8
18F878F8
20F078F8
00F070F8
08E860F8
1CCC40F8
3F9E40F8
3F3F80F9
5E4F007E
86860030
ENDCHAR
STARTCHAR 004E
ENCODING 78
SWIDTH 750 0
DWIDTH 24 0
BBX 24 21 0 0
BITMAP
07E0F0
19FB7C
21FC7C
70FC7E
78FC7E
7CFC3E
7C7E3E
7E7E07
3E7E1E
1E7E7C
0E7EF8
047EF8
087CF8
107CF8
0078F8
0470F8
0E60F8
1F40F8
3F807D
5F007E
860038
ENDCHAR
STARTCHAR 004F
ENCODING 79
SWIDTH 812 0
DWIDTH 26 0
BBX 24 22 0 0
BITMAP
00FF00
037FC0
0E7FF0
1E7FF8
1E7FFC
3F3FFE
3F007E
3F0006
3F8003
1F8003
9F8001
8F8001
4F0001
3E0001
0F8001
3FE002
7FF806
4FFE0C
83FFF8
81FFF0
007FE0
001F80
ENDCHAR
STARTCHAR 0050
ENCODING 80
SWIDTH 812 0
DWIDTH 26 0
BBX 25 28 0 -7
BITMAP
0FC1F800
33E67C00
41F47E00
E1F87E00
F0F87C00
F8F87C00
FCF83C00
FEF81F80
FEF83800
7EF87C00
3EF8FF00
1CF8FF80
08F8FF80
30F87F80
07F81F80
0FF80700
1FFC0300
1FFF0200
21FFC400
20FFF800
00FFF000
00F3C000
00F00000
00F00000
00700000
00600000
00600000
00600000
ENDCHAR
STARTCHAR 0051
ENCODING 81
SWIDTH 906 0
DWIDTH 29 0
BBX 29 22 0 0
BITMAP
00FF8000
037FE000
0E7FF800
1E7FFC00
1E7FFE00
3F3FFE00
3F000F00
3F800700
3F800300
1FC00100
9FC00180
8FC00180
47800180
67000100
3FC00100
0FF00308
1FFC0708
3FFF0D88
67FFF9F8
41FFF9F8
007FE1F0
001F80F0
ENDCHAR
STARTCHAR 0052
ENCODING 82
SWIDTH 812 0
DWIDTH 26 0
BBX 25 21 0 0
BITMAP
0FC1F800
33E23C00
21F43E00
60FC3E00
70FC3E00
F8F81E00
FCF81E00
7EF80F00
7EF80780
3EF9FC00
1EFEFC00
0EF87C00
0CF87C00
70F87C00
00F87C00
3CF87C00
3CF07C00
7CF07C00
38E03E80
38C03F00
1F801C00
ENDCHAR
STARTCHAR 0053
ENCODING 83
SWIDTH 750 0
DWIDTH 24 0
BBX 22 22 1 0
BITMAP
01F800
07FF04
0FFFC4
1FFFF8
383FF0
6787E0
484000
D00FC0
903FF0
907FF8
99FFCC
8FFF84
8FFE04
C7F804
63E00C
70001C
7C00F8
3FFFF8
1FFFF0
0FFFE0
07FFC0
00FE00
ENDCHAR
STARTCHAR 0054
ENCODING 84
SWIDTH 687 0
DWIDTH 22 0
BBX 21 22 0 0
BITMAP
0FC000
3FF860
7FFE10
7FFF08
C1FFC8
803FF8
806FF0
80F3E0
40F800
39FC00
01FE00
01FE00
00FE00
007E00
0F9C00
3FE800
3FF008
7FFC08
4FFF10
83FFE0
80FFC0
003F00
ENDCHAR
STARTCHAR 0055
ENCODING 85
SWIDTH 656 0
DWIDTH 21 0
BBX 22 21 -1 1
BITMAP
0C0080
1E00C0
3F01E0
7F03F0
FF0FF8
1F03E0
1F03E0
1F03E0
1F03E0
1F03E0
1F03E0
1F03E0
1F03E0
1F03E0
1F03E0
1F03E0
1F03E0
1FCFF4
7FF3F8
0FC1E0
0300C0
ENDCHAR
STARTCHAR 0056
ENCODING 86
SWIDTH 812 0
DWIDTH 26 0
BBX 25 22 0 0
BITMAP
0FC1F000
11F6FC00
21F4FC00
70F87E00
78F87E00
FCF87E00
7EF83E00
7EF81F80
3EF82000
1EF87800
0E78FC00
0C70FE00
3060FF00
00407F00
07E03F00
0FF81F00
1FFC0F00
23FE0600
41FF0400
007F8800
003FD000
000FE000
ENDCHAR
STARTCHAR 0057
ENCODING 87
SWIDTH 1031 0
DWIDTH 33 0
BBX 32 22 0 0
BITMAP
07E3C3E0
19F44C78
30F8387C
70F8707C
78F8783C
FCF8F83C
FCF8FC3E
7EF8FE10
7EF8FE30
3EF8FE78
1EF87E7C
0EF07EFE
0CE03E7F
30C01C7F
0F00101F
1FC01E0F
3FF03F07
7FF87FC2
4FFFFFE2
43FFBFFC
00FE0FF0
007803E0
ENDCHAR
STARTCHAR 0058
ENCODING 88
SWIDTH 656 0
DWIDTH 21 0
BBX 22 21 0 0
BITMAP
0300F0
07C378
0FF27C
1FF47C
63FC78
80FC38
00FC00
00FC00
007C00
0FFFE0
1FFFE0
1FFFC0
107C00
207C00
207C00
00FC00
F0FE08
F8FE10
F93FE0
E31F80
7E0E00
ENDCHAR
STARTCHAR 0059
ENCODING 89
SWIDTH 750 0
DWIDTH 24 0
BBX 22 29 0 -7
BITMAP
07C3C0
39F4E0
20F870
60F878
70F878
78F878
FCF87C
7CF87C
7CF87C
7CF87C
3CF87C
1CF87C
0CF07C
09E07C
31807C
07807C
0FC07C
1FE07C
23FC7C
41F07C
40E07C
004078
000078
078070
0FC0F0
1FC0E0
0FC1C0
0F8380
03FC00
ENDCHAR
STARTCHAR 005A
ENCODING 90
SWIDTH 625 0
DWIDTH 20 0
BBX 21 29 -2 -7
BITMAP
00FC00
070F80
0803C0
0803E0
1001E0
1001F0
0701F0
0F81F0
0F81F0
0F03E0
0E03C0
060780
01F800
030780
0403C0
0803E0
0803F0
0001F0
0001F8
0001F8
3C01F8
FF01F8
9F01F8
9F81F0
9F81F0
1F83E0
0F83E0
07C780
01FE00
ENDCHAR
STARTCHAR 005B
ENCODING 91
SWIDTH 281 0
DWIDTH 9 0
BBX 8 29 1 -7
BITMAP
FF
F8
F8
F8
F8
F8
F8
F8
F8
F8
F8
F8
F8
F8
F8
F8
F8
F8
F8
F8
F8
F8
F8
F8
F8
F8
F8
F8
FF
ENDCHAR
STARTCHAR 005C
ENCODING 92
SWIDTH 250 0
DWIDTH 8 0
BBX 8 22 0 1
BITMAP
C0
E0
60
60
70
30
30
30
38
18
18
1C
0C
0C
0C
06
06
06
06
03
03
03
ENDCHAR
STARTCHAR 005D
ENCODING 93
SWIDTH 281 0
DWIDTH 9 0
BBX 8 29 0 -7
BITMAP
FF
1F
1F
1F
1F
1F
1F
1F
1F
1F
1F
1F
1F
1F
1F
1F
1F
1F
1F
1F
1F
1F
1F
1F
1F
1F
1F
1F
FF
ENDCHAR
STARTCHAR 005E
ENCODING 94
SWIDTH 593 0
DWIDTH 19 0
BBX 13 8 3 12
BITMAP
0F00
0F80
1FC0
3DC0
39E0
78F0
F070
E078
ENDCHAR
STARTCHAR 005F
ENCODING 95
SWIDTH 500 0
DWIDTH 16 0
BBX 16 1 0 -4
BITMAP
FFFF
ENDCHAR
STARTCHAR 0060
ENCODING 96
SWIDTH 218 0
DWIDTH 7 0
BBX 5 4 1 19
BITMAP
E0
E0
F0
18
ENDCHAR
STARTCHAR 0061
ENCODING 97
SWIDTH 500 0
DWIDTH 16 0
BBX 14 16 1 1
BITMAP
0180
07C0
1FE0
3BF8
79F8
F9F0
F9F0
F9F0
F9F0
F9F0
F9F0
F9F0
F9F0
7DF8
7EFC
3870
ENDCHAR
STARTCHAR 0062
ENCODING 98
SWIDTH 500 0
DWIDTH 16 0
BBX 14 21 1 0
BITMAP
07C0
1E00
BE00
7E00
7E00
7E00
3E70
3EF8
3FF8
3E7C
3E7C
3E7C
3E7C
3E7C
3E7C
3E7C
3E78
7E78
7F60
1F80
0600
ENDCHAR
STARTCHAR 0063
ENCODING 99
SWIDTH 406 0
DWIDTH 13 0
BBX 12 16 1 1
BITMAP
0180
1FC0
7FC0
FBE0
FBE0
F9C0
F900
F800
F800
F800
F800
FC00
FE10
7FE0
3F00
0C00
ENDCHAR
STARTCHAR 0064
ENCODING 100
SWIDTH 500 0
DWIDTH 16 0
BBX 12 21 2 0
BITMAP
3800
4000
C000
F000
FE00
FF80
7FE0
19E0
09F0
F9F0
F9F0
F9F0
F9F0
F9F0
F9F0
F9F0
FDF0
FFE0
FFC0
3E00
0C00
ENDCHAR
STARTCHAR 0065
ENCODING 101
SWIDTH 406 0
DWIDTH 13 0
BBX 12 16 1 1
BITMAP
0180
07C0
3FE0
7FE0
79F0
79F0
F8E0
F8C0
FB00
FE00
7C00
7C00
7E10
3F20
1FC0
0600
ENDCHAR
STARTCHAR 0066
ENCODING 102
SWIDTH 312 0
DWIDTH 10 0
BBX 9 28 0 -7
BITMAP
0C80
1F80
1F80
3F80
2700
3000
3800
3F80
3F80
FF80
3E00
3E00
1E00
1E00
1E00
1E00
1E00
1E00
1E00
1E00
1E00
1C00
0C00
0C00
0C00
0C00
0C00
0800
ENDCHAR
STARTCHAR 0067
ENCODING 103
SWIDTH 500 0
DWIDTH 16 0
BBX 14 24 1 -6
BITMAP
0100
0780
0FE0
3BF8
79F8
F9F0
F9F0
F9F0
F9F0
F9F0
F9F0
F9F0
F9F0
FDF0
7EF0
7CF8
70FC
207C
003C
783C
F83C
F838
78F0
1FC0
ENDCHAR
STARTCHAR 0068
ENCODING 104
SWIDTH 500 0
DWIDTH 16 0
BBX 14 29 0 -7
BITMAP
03C0
9F00
BF00
7E00
3E00
3E00
3E18
3E7C
3EFC
3F7C
3E7C
3E7C
3E7C
3E7C
3E7C
3E7C
3E7C
3E7C
3E7C
FFFC
3E7C
0C7C
0878
0078
0070
00E0
00C0
0100
0600
ENDCHAR
STARTCHAR 0069
ENCODING 105
SWIDTH 281 0
DWIDTH 9 0
BBX 8 21 1 0
BITMAP
38
7C
7C
3C
10
00
10
38
FF
7C
7C
7C
7C
7C
7C
7C
7C
7C
7D
3E
18
ENDCHAR
STARTCHAR 006A
ENCODING 106
SWIDTH 281 0
DWIDTH 9 0
BBX 10 28 -1 -6
BITMAP
1E00
1F00
1F00
1E00
0C00
0000
0400
1E00
3FC0
1F00
1F00
1F00
1F00
1F00
1F00
1F00
1F00
1F00
1F00
1F00
1F00
1F00
1F00
1F00
1F00
3E80
3C40
F000
ENDCHAR
STARTCHAR 006B
ENCODING 107
SWIDTH 500 0
DWIDTH 16 0
BBX 17 21 0 0
BITMAP
03C000
9F0000
BE0000
7E0000
3E0000
3E0000
3E1800
3E3C00
3EFE00
3F3C00
3E1000
3E3800
3E7C00
3FFC00
3E3C00
3E3E00
3E3E00
3E3E00
3E1E80
7F1F00
0C0C00
ENDCHAR
STARTCHAR 006C
ENCODING 108
SWIDTH 281 0
DWIDTH 9 0
BBX 10 21 0 0
BITMAP
03C0
8F00
5F00
3E00
3E00
3E00
3E00
3E00
3E00
3E00
3E00
3E00
3E00
3E00
3E00
3E00
3E00
3E00
3E40
3F80
0C00
ENDCHAR
STARTCHAR 006D
ENCODING 109
SWIDTH 750 0
DWIDTH 24 0
BBX 23 16 1 1
BITMAP
306020
78F070
7CF9F8
FDFBFC
7EFCF8
7CF8F8
7CF8F8
7CF8F8
7CF8F8
7CF8F8
7CF8F8
7CF8F8
7CF8F8
7CF8FA
7CF8FC
102070
ENDCHAR
STARTCHAR 006E
ENCODING 110
SWIDTH 531 0
DWIDTH 17 0
BBX 16 16 0 1
BITMAP
1818
1C38
3E7E
7EFF
BF7C
3E7C
3E7C
3E7C
3E7C
3E7C
3E7C
3E7C
3E7C
3E7D
3E3E
0818
ENDCHAR
STARTCHAR 006F
ENCODING 111
SWIDTH 468 0
DWIDTH 15 0
BBX 12 16 2 1
BITMAP
00C0
01E0
0FE0
FBF0
F9F0
F9F0
F9F0
F9F0
F9F0
F9F0
F9F0
FDE0
FFE0
FF80
3E00
0C00
ENDCHAR
STARTCHAR 0070
ENCODING 112
SWIDTH 531 0
DWIDTH 17 0
BBX 16 27 0 -6
BITMAP
0E00
1000
3800
3E00
3F0C
3F1E
1FFE
0F9E
0F9F
0F9F
0F9F
0F9F
0F9F
1F9F
3F9F
7FDE
7FFC
8FF8
0FE0
0F40
0F00
0700
0700
0700
0600
0200
0200
ENDCHAR
STARTCHAR 0071
ENCODING 113
SWIDTH 500 0
DWIDTH 16 0
BBX 13 24 1 -6
BITMAP
0100
0780
0FE0
3BF8
79F8
F9F0
F9F0
F9F0
F9F0
F9F0
F9F0
F9F0
FDF0
FDF0
7EF0
7CF0
38F0
10F0
00F0
00F0
0060
0060
0060
0020
ENDCHAR
STARTCHAR 0072
ENCODING 114
SWIDTH 437 0
DWIDTH 14 0
BBX 14 16 0 1
BITMAP
0C00
1E10
3F38
7F78
9FFC
1F3C
1F38
1F10
1F00
1F00
1F00
1F00
1F00
1FB0
3FC0
0700
ENDCHAR
STARTCHAR 0073
ENCODING 115
SWIDTH 500 0
DWIDTH 16 0
BBX 14 20 1 0
BITMAP
07C0
1820
3010
2008
0008
0218
07F8
3FF8
27F0
61E0
F078
F8FC
FFFC
787C
3C3C
1F38
3FB0
7FC0
7F80
FF00
ENDCHAR
STARTCHAR 0074
ENCODING 116
SWIDTH 343 0
DWIDTH 11 0
BBX 10 20 1 0
BITMAP
0200
0600
0600
0E00
0E00
1E00
3FC0
FFC0
3E00
3E00
3E00
3E00
3E00
3E00
3E00
3E00
3E00
7F80
7F00
0C00
ENDCHAR
STARTCHAR 0075
ENCODING 117
SWIDTH 531 0
DWIDTH 17 0
BBX 15 16 1 1
BITMAP
1820
3830
7C7C
FCFC
7CF8
7CF8
7CF8
7CF8
7CF8
7CF8
7CF8
7CF8
7CF8
7CFA
7FFC
3870
ENDCHAR
STARTCHAR 0076
ENCODING 118
SWIDTH 500 0
DWIDTH 16 0
BBX 14 19 1 0
BITMAP
3C00
6000
E000
F800
FC30
FEF8
7FFC
3E7C
3E7C
3E7C
3E7C
3E7C
3E7C
3E7C
3E7C
7E78
7F70
0F80
0600
ENDCHAR
STARTCHAR 0077
ENCODING 119
SWIDTH 718 0
DWIDTH 23 0
BBX 21 19 1 0
BITMAP
3C0000
600000
E00000
F80000
FC70E0
FEF9F0
FFFFF0
3E7CF8
3E7CF8
3E7CF8
3E7CF8
3E7CF8
3E7CF8
3E7CF8
3E7CF8
3E7CF0
7EFEC0
7C7F00
180C00
ENDCHAR
STARTCHAR 0078
ENCODING 120
SWIDTH 468 0
DWIDTH 15 0
BBX 15 16 0 0
BITMAP
0C10
3E3E
7E3E
FF7C
9F40
1F80
0F80
0FC0
07C0
07C0
03E0
03E0
05F0
75F0
7CFC
F8E0
ENDCHAR
STARTCHAR 0079
ENCODING 121
SWIDTH 500 0
DWIDTH 16 0
BBX 14 27 1 -7
BITMAP
3000
4000
C000
F800
FC30
FC78
7EF8
3F7C
3E7C
3E7C
3E7C
3E7C
3E7C
3E7C
3E7C
3E7C
3E7C
FE7C
3C78
1878
0878
00F0
00F0
00E0
0180
0300
0400
ENDCHAR
STARTCHAR 007A
ENCODING 122
SWIDTH 375 0
DWIDTH 12 0
BBX 12 24 0 -6
BITMAP
0600
0F00
1F80
3FC0
4FC0
07C0
0780
0700
0C60
3F80
4FC0
13E0
21E0
61F0
41F0
C1F0
C1F0
C1F0
C1F0
C1E0
C1E0
63C0
6380
1F00
ENDCHAR
STARTCHAR 007B
ENCODING 123
SWIDTH 312 0
DWIDTH 10 0
BBX 8 29 1 -7
BITMAP
0F
3E
7C
7C
7C
7C
7C
7C
7C
7C
7C
7C
7C
78
F0
78
7C
7C
7C
7C
7C
7C
7C
7C
7C
7C
7C
3E
1F
ENDCHAR
STARTCHAR 007C
ENCODING 124
SWIDTH 218 0
DWIDTH 7 0
BBX 3 22 2 0
BITMAP
E0
E0
E0
E0
E0
E0
E0
E0
E0
E0
E0
E0
E0
E0
E0
E0
E0
E0
E0
E0
E0
E0
ENDCHAR
STARTCHAR 007D
ENCODING 125
SWIDTH 312 0
DWIDTH 10 0
BBX 8 29 1 -7
BITMAP
F0
78
3C
3C
3C
3C
3C
3C
3C
3C
3C
3C
3C
1E
0F
1E
3C
3C
3C
3C
3C
3C
3C
3C
3C
3C
3C
78
F0
ENDCHAR
STARTCHAR 007E
ENCODING 126
SWIDTH 437 0
DWIDTH 14 0
BBX 12 5 2 12
BITMAP
3000
3C30
7FE0
C3E0
00C0
ENDCHAR
STARTCHAR 00A0
ENCODING 160
SWIDTH 468 0
DWIDTH 15 0
BBX 0 0 0 0
BITMAP
ENDCHAR
STARTCHAR 00A1
ENCODING 161
SWIDTH 375 0
DWIDTH 12 0
BBX 6 23 3 -6
BITMAP
20
30
F8
F8
70
20
00
00
20
20
30
30
70
70
78
78
78
78
7C
7C
7C
78
38
ENDCHAR
STARTCHAR 00A2
ENCODING 162
SWIDTH 562 0
DWIDTH 18 0
BBX 17 22 1 -2
BITMAP
004000
008000
008000
03C000
0EAE00
1EBF80
3CA000
7CF000
7CF000
7DF800
FCFC00
7CFC00
7CFC00
7CBE00
7DBC00
3CFC80
3EF880
1F8100
07C200
00FC00
008000
008000
ENDCHAR
STARTCHAR 00A3
ENCODING 163
SWIDTH 593 0
DWIDTH 19 0
BBX 18 22 1 0
BITMAP
03FC00
0F0300
3C0180
7C07C0
7C0FC0
7E0FC0
7F0780
7F0000
3F8000
1F8000
FFFF00
078000
070000
060000
080000
1E0000
3F8040
7FE040
4FF880
87FF80
81FF00
007C00
ENDCHAR
STARTCHAR 00A4
ENCODING 164
SWIDTH 625 0
DWIDTH 20 0
BBX 14 14 3 4
BITMAP
4F98
FFDC
7FF8
7FF8
F87C
F03C
F03C
F03C
F03C
F87C
7FF8
7FF8
FFFC
6FD8
ENDCHAR
STARTCHAR 00A5
ENCODING 165
SWIDTH 625 0
DWIDTH 20 0
BBX 20 22 0 0
BITMAP
FFC3F0
3E00E0
1E00C0
1F0080
0F0100
078100
078200
03C600
03C400
01E800
0FEF80
00F800
00F800
00F800
00F800
0FFF80
00F800
00F800
00F800
00F800
01F800
03FE00
ENDCHAR
STARTCHAR 00A6
ENCODING 166
SWIDTH 218 0
DWIDTH 7 0
BBX 3 22 2 0
BITMAP
E0
E0
E0
E0
E0
E0
E0
E0
E0
00
00
00
00
00
E0
E0
E0
E0
E0
E0
E0
E0
ENDCHAR
STARTCHAR 00A7
ENCODING 167
SWIDTH 593 0
DWIDTH 19 0
BBX 15 29 2 -7
BITMAP
07E0
1C38
303C
707C
707C
7838
7E00
7FC0
3FF0
1FF8
67FC
41FE
C03E
E00E
F006
FC06
FF04
7FC8
3FF0
0FF8
03FC
007C
003C
380C
7C0C
7C08
7818
3830
0FC0
ENDCHAR
STARTCHAR 00A8
ENCODING 168
SWIDTH 375 0
DWIDTH 12 0
BBX 11 5 0 20
BITMAP
2080
30C0
FBE0
30C0
2080
ENDCHAR
STARTCHAR 00A9
ENCODING 169
SWIDTH 781 0
DWIDTH 25 0
BBX 23 22 1 0
BITMAP
00FE00
03FF80
0F81E0
1C0070
380038
30E41C
639C0C
63370E
C77006
C77806
C77806
C73C06
C71C06
C34C06
63A88E
61D10C
307E1C
380038
1C0070
0F01E0
03FF80
00FE00
ENDCHAR
STARTCHAR 00AA
ENCODING 170
SWIDTH 375 0
DWIDTH 12 0
BBX 9 11 2 11
BITMAP
0C00
3F80
E700
E700
E700
E700
E700
EF00
F700
E780
4200
ENDCHAR
STARTCHAR 00AB
ENCODING 171
SWIDTH 406 0
DWIDTH 13 0
BBX 11 12 1 2
BITMAP
0040
0440
08C0
1980
3380
7700
E700
7700
3380
1980
08C0
0460
ENDCHAR
STARTCHAR 00AC
ENCODING 172
SWIDTH 968 0
DWIDTH 31 0
BBX 28 10 1 -2
BITMAP
70152000
88152000
83BD4690
42958990
3455C960
0C954E60
8C952960
72951620
01000040
000000C0
ENDCHAR
STARTCHAR 00AD
ENCODING 173
SWIDTH 437 0
DWIDTH 14 0
BBX 8 3 3 7
BITMAP
FF
FF
FF
ENDCHAR
STARTCHAR 00AE
ENCODING 174
SWIDTH 781 0
DWIDTH 25 0
BBX 23 22 1 0
BITMAP
00FE00
03FF80
0F81E0
1E0070
3C0038
38001C
73CE0C
74770E
E67706
E7F706
E3F386
E1FF06
E17706
E77706
77770E
72678C
3BC31C
3C0038
1E0070
0F81E0
03FF80
00FE00
ENDCHAR
STARTCHAR 00AF
ENCODING 175
SWIDTH 281 0
DWIDTH 9 0
BBX 0 0 0 0
BITMAP
ENDCHAR
STARTCHAR 00B0
ENCODING 176
SWIDTH 281 0
DWIDTH 9 0
BBX 7 6 1 16
BITMAP
78
C4
82
82
C4
78
ENDCHAR
STARTCHAR 00B1
ENCODING 177
SWIDTH 593 0
DWIDTH 19 0
BBX 15 19 1 0
BITMAP
0380
0380
0380
0380
0380
0380
FFFE
FFFE
FFFE
0380
0380
0380
0380
0380
0380
0000
FFFE
FFFE
FFFE
ENDCHAR
STARTCHAR 00B2
ENCODING 178
SWIDTH 343 0
DWIDTH 11 0
BBX 9 12 0 9
BITMAP
3E00
C780
F780
F780
7780
0780
0F00
1880
6080
7F80
9F80
8700
ENDCHAR
STARTCHAR 00B3
ENCODING 179
SWIDTH 312 0
DWIDTH 10 0
BBX 10 12 0 10
BITMAP
3E00
C380
E380
6380
0380
3E00
0380
03C0
E3C0
E3C0
C380
3F00
ENDCHAR
STARTCHAR 00B4
ENCODING 180
SWIDTH 218 0
DWIDTH 7 0
BBX 5 4 1 19
BITMAP
38
78
78
80
ENDCHAR
STARTCHAR 00B5
ENCODING 181
SWIDTH 531 0
DWIDTH 17 0
BBX 16 24 1 -6
BITMAP
1820
3830
7C7C
FCFC
7CF8
7CF8
7CF8
7CF8
7CF8
7CF8
7CF8
7CF8
7CF8
7CF9
7FFE
7CFC
7878
7830
7800
3800
3800
3000
3000
1000
ENDCHAR
STARTCHAR 00B6
ENCODING 182
SWIDTH 593 0
DWIDTH 19 0
BBX 17 29 1 -7
BITMAP
1FFF80
3FBE00
7FBC00
7FBC00
FFBC00
FFBC00
FFBC00
FFBC00
7FBC00
7FBC00
7FBC00
3FBC00
07BC00
07BC00
07BC00
07BC00
07BC00
07BC00
07BC00
07BC00
07BC00
07BC00
07BC00
07BC00
07BC00
07BC00
07BC00
07BE00
1FBF80
ENDCHAR
STARTCHAR 00B7
ENCODING 183
SWIDTH 187 0
DWIDTH 6 0
BBX 3 3 1 7
BITMAP
E0
E0
E0
ENDCHAR
STARTCHAR 00B8
ENCODING 184
SWIDTH 281 0
DWIDTH 9 0
BBX 0 0 0 0
BITMAP
ENDCHAR
STARTCHAR 00B9
ENCODING 185
SWIDTH 250 0
DWIDTH 8 0
BBX 7 11 1 10
BITMAP
18
38
F8
38
38
38
38
38
38
38
FE
ENDCHAR
STARTCHAR 00BA
ENCODING 186
SWIDTH 375 0
DWIDTH 12 0
BBX 9 11 1 11
BITMAP
0300
7F80
7380
7380
7380
7380
7380
7380
FB00
3E00
0800
ENDCHAR
STARTCHAR 00BB
ENCODING 187
SWIDTH 406 0
DWIDTH 13 0
BBX 10 12 1 4
BITMAP
8000
4400
6200
3300
3B80
3DC0
1DC0
39C0
3380
6300
4600
8400
ENDCHAR
STARTCHAR 00BC
ENCODING 188
SWIDTH 687 0
DWIDTH 22 0
BBX 21 21 1 1
BITMAP
180080
380100
F80100
380200
380400
380400
380800
381000
381000
382000
FE40E0
0041E0
0082E0
0106E0
0104E0
0208E0
0610E0
043FF8
0800E0
1800E0
0003F8
ENDCHAR
STARTCHAR 00BD
ENCODING 189
SWIDTH 718 0
DWIDTH 23 0
BBX 21 22 1 -1
BITMAP
000080
180180
380300
F80200
380600
380C00
380800
381800
383000
382000
3867C0
FEC8F0
008C70
018E78
030CF8
0200F0
0401E0
0C0308
080C18
100FF0
1009F0
2008E0
ENDCHAR
STARTCHAR 00BE
ENCODING 190
SWIDTH 718 0
DWIDTH 23 0
BBX 22 22 1 1
BITMAP
7E0040
C700C0
E38080
E38100
030300
3E0200
078400
03CC00
E3C800
E3D000
C7B030
7E2070
0040F0
00C1F0
008170
010270
010470
020C70
060FFC
040070
080070
1001FC
ENDCHAR
STARTCHAR 00BF
ENCODING 191
SWIDTH 437 0
DWIDTH 14 0
BBX 12 23 1 -6
BITMAP
0400
0600
1F00
1F80
0600
0000
0000
0000
0E00
1100
1100
0300
0200
0E00
3E00
7C00
FCE0
F9F0
F9F0
F8F0
7820
7C60
1F80
ENDCHAR
STARTCHAR 00C0
ENCODING 192
SWIDTH 750 0
DWIDTH 24 0
BBX 0 0 0 0
BITMAP
ENDCHAR
STARTCHAR 00C1
ENCODING 193
SWIDTH 750 0
DWIDTH 24 0
BBX 0 0 0 0
BITMAP
ENDCHAR
STARTCHAR 00C2
ENCODING 194
SWIDTH 750 0
DWIDTH 24 0
BBX 0 0 0 0
BITMAP
ENDCHAR
STARTCHAR 00C3
ENCODING 195
SWIDTH 750 0
DWIDTH 24 0
BBX 0 0 0 0
BITMAP
ENDCHAR
STARTCHAR 00C4
ENCODING 196
SWIDTH 750 0
DWIDTH 24 0
BBX 0 0 0 0
BITMAP
ENDCHAR
STARTCHAR 00C5
ENCODING 197
SWIDTH 750 0
DWIDTH 24 0
BBX 0 0 0 0
BITMAP
ENDCHAR
STARTCHAR 00C6
ENCODING 198
SWIDTH 968 0
DWIDTH 31 0
BBX 0 0 0 0
BITMAP
ENDCHAR
STARTCHAR 00C7
ENCODING 199
SWIDTH 718 0
DWIDTH 23 0
BBX 0 0 0 0
BITMAP
ENDCHAR
STARTCHAR 00C8
ENCODING 200
SWIDTH 781 0
DWIDTH 25 0
BBX 0 0 0 0
BITMAP
ENDCHAR
STARTCHAR 00C9
ENCODING 201
SWIDTH 781 0
DWIDTH 25 0
BBX 0 0 0 0
BITMAP
ENDCHAR
STARTCHAR 00CA
ENCODING 202
SWIDTH 781 0
DWIDTH 25 0
BBX 0 0 0 0
BITMAP
ENDCHAR
STARTCHAR 00CB
ENCODING 203
SWIDTH 781 0
DWIDTH 25 0
BBX 0 0 0 0
BITMAP
ENDCHAR
STARTCHAR 00CC
ENCODING 204
SWIDTH 656 0
DWIDTH 21 0
BBX 0 0 0 0
BITMAP
ENDCHAR
STARTCHAR 00CD
ENCODING 205
SWIDTH 656 0
DWIDTH 21 0
BBX 0 0 0 0
BITMAP
ENDCHAR
STARTCHAR 00CE
ENCODING 206
SWIDTH 656 0
DWIDTH 21 0
BBX 0 0 0 0
BITMAP
ENDCHAR
STARTCHAR 00CF
ENCODING 207
SWIDTH 656 0
DWIDTH 21 0
BBX 0 0 0 0
BITMAP
ENDCHAR
STARTCHAR 00D0
ENCODING 208
SWIDTH 781 0
DWIDTH 25 0
BBX 0 0 0 0
BITMAP
ENDCHAR
STARTCHAR 00D1
ENCODING 209
SWIDTH 750 0
DWIDTH 24 0
BBX 0 0 0 0
BITMAP
ENDCHAR
STARTCHAR 00D2
ENCODING 210
SWIDTH 812 0
DWIDTH 26 0
BBX 0 0 0 0
BITMAP
ENDCHAR
STARTCHAR 00D3
ENCODING 211
SWIDTH 812 0
DWIDTH 26 0
BBX 0 0 0 0
BITMAP
ENDCHAR
STARTCHAR 00D4
ENCODING 212
SWIDTH 812 0
DWIDTH 26 0
BBX 0 0 0 0
BITMAP
ENDCHAR
STARTCHAR 00D5
ENCODING 213
SWIDTH 812 0
DWIDTH 26 0
BBX 0 0 0 0
BITMAP
ENDCHAR
STARTCHAR 00D6
ENCODING 214
SWIDTH 812 0
DWIDTH 26 0
BBX 0 0 0 0
BITMAP
ENDCHAR
STARTCHAR 00D7
ENCODING 215
SWIDTH 593 0
DWIDTH 19 0
BBX 15 14 2 1
BITMAP
400C
F01E
F83E
7C7C
3EF8
1FF0
0FE0
07C0
0FE0
1EF0
3C78
783C
F01E
2008
ENDCHAR
STARTCHAR 00D8
ENCODING 216
SWIDTH 812 0
DWIDTH 26 0
BBX 0 0 0 0
BITMAP
ENDCHAR
STARTCHAR 00D9
ENCODING 217
SWIDTH 656 0
DWIDTH 21 0
BBX 0 0 0 0
BITMAP
ENDCHAR
STARTCHAR 00DA
ENCODING 218
SWIDTH 656 0
DWIDTH 21 0
BBX 0 0 0 0
BITMAP
ENDCHAR
STARTCHAR 00DB
ENCODING 219
SWIDTH 656 0
DWIDTH 21 0
BBX 0 0 0 0
BITMAP
ENDCHAR
STARTCHAR 00DC
ENCODING 220
SWIDTH 656 0
DWIDTH 21 0
BBX 0 0 0 0
BITMAP
ENDCHAR
STARTCHAR 00DD
ENCODING 221
SWIDTH 750 0
DWIDTH 24 0
BBX 0 0 0 0
BITMAP
ENDCHAR
STARTCHAR 00DE
ENCODING 222
SWIDTH 812 0
DWIDTH 26 0
BBX 0 0 0 0
BITMAP
ENDCHAR
STARTCHAR 00DF
ENCODING 223
SWIDTH 531 0
DWIDTH 17 0
BBX 15 28 0 -7
BITMAP
1E40
1F40
3FC0
2FC0
2380
2000
380C
3C1C
3E7E
FEFE
3F3E
3E3E
3E3E
3E3C
3E38
3E60
3EFC
1F3E
1E3E
1E3E
1E3E
1E3E
1C3E
0C3E
0E3C
0E38
0DF0
0800
ENDCHAR
STARTCHAR 00E0
ENCODING 224
SWIDTH 500 0
DWIDTH 16 0
BBX 0 0 0 0
BITMAP
ENDCHAR
STARTCHAR 00E1
ENCODING 225
SWIDTH 500 0
DWIDTH 16 0
BBX 0 0 0 0
BITMAP
ENDCHAR
STARTCHAR 00E2
ENCODING 226
SWIDTH 500 0
DWIDTH 16 0
BBX 0 0 0 0
BITMAP
ENDCHAR
STARTCHAR 00E3
ENCODING 227
SWIDTH 500 0
DWIDTH 16 0
BBX 0 0 0 0
BITMAP
ENDCHAR
STARTCHAR 00E4
ENCODING 228
SWIDTH 500 0
DWIDTH 16 0
BBX 0 0 0 0
BITMAP
ENDCHAR
STARTCHAR 00E5
ENCODING 229
SWIDTH 500 0
DWIDTH 16 0
BBX 0 0 0 0
BITMAP
ENDCHAR
STARTCHAR 00E6
ENCODING 230
SWIDTH 625 0
DWIDTH 20 0
BBX 0 0 0 0
BITMAP
ENDCHAR
STARTCHAR 00E7
ENCODING 231
SWIDTH 406 0
DWIDTH 13 0
BBX 0 0 0 0
BITMAP
ENDCHAR
STARTCHAR 00E8
ENCODING 232
SWIDTH 406 0
DWIDTH 13 0
BBX 0 0 0 0
BITMAP
ENDCHAR
STARTCHAR 00E9
ENCODING 233
SWIDTH 406 0
DWIDTH 13 0
BBX 0 0 0 0
BITMAP
ENDCHAR
STARTCHAR 00EA
ENCODING 234
SWIDTH 406 0
DWIDTH 13 0
BBX 0 0 0 0
BITMAP
ENDCHAR
STARTCHAR 00EB
ENCODING 235
SWIDTH 406 0
DWIDTH 13 0
BBX 0 0 0 0
BITMAP
ENDCHAR
STARTCHAR 00EC
ENCODING 236
SWIDTH 281 0
DWIDTH 9 0
BBX 0 0 0 0
BITMAP
ENDCHAR
STARTCHAR 00ED
ENCODING 237
SWIDTH 281 0
DWIDTH 9 0
BBX 0 0 0 0
BITMAP
ENDCHAR
STARTCHAR 00EE
ENCODING 238
SWIDTH 281 0
DWIDTH 9 0
BBX 0 0 0 0
BITMAP
ENDCHAR
STARTCHAR 00EF
ENCODING 239
SWIDTH 281 0
DWIDTH 9 0
BBX 0 0 0 0
BITMAP
ENDCHAR
STARTCHAR 00F0
ENCODING 240
SWIDTH 500 0
DWIDTH 16 0
BBX 0 0 0 0
BITMAP
ENDCHAR
STARTCHAR 00F1
ENCODING 241
SWIDTH 531 0
DWIDTH 17 0
BBX 0 0 0 0
BITMAP
ENDCHAR
STARTCHAR 00F2
ENCODING 242
SWIDTH 468 0
DWIDTH 15 0
BBX 0 0 0 0
BITMAP
ENDCHAR
STARTCHAR 00F3
ENCODING 243
SWIDTH 468 0
DWIDTH 15 0
BBX 0 0 0 0
BITMAP
ENDCHAR
STARTCHAR 00F4
ENCODING 244
SWIDTH 468 0
DWIDTH 15 0
BBX 0 0 0 0
BITMAP
ENDCHAR
STARTCHAR 00F5
ENCODING 245
SWIDTH 468 0
DWIDTH 15 0
BBX 0 0 0 0
BITMAP
ENDCHAR
STARTCHAR 00F6
ENCODING 246
SWIDTH 468 0
DWIDTH 15 0
BBX 0 0 0 0
BITMAP
ENDCHAR
STARTCHAR 00F7
ENCODING 247
SWIDTH 593 0
DWIDTH 19 0
BBX 16 20 1 0
BITMAP
0080
0180
03E0
03E0
0180
0080
0000
0000
0000
FFFF
FFFF
FFFF
0000
0000
0080
0180
03E0
03E0
0180
0080
ENDCHAR
STARTCHAR 00F8
ENCODING 248
SWIDTH 468 0
DWIDTH 15 0
BBX 0 0 0 0
BITMAP
ENDCHAR
STARTCHAR 00F9
ENCODING 249
SWIDTH 531 0
DWIDTH 17 0
BBX 0 0 0 0
BITMAP
ENDCHAR
STARTCHAR 00FA
ENCODING 250
SWIDTH 531 0
DWIDTH 17 0
BBX 0 0 0 0
BITMAP
ENDCHAR
STARTCHAR 00FB
ENCODING 251
SWIDTH 531 0
DWIDTH 17 0
BBX 0 0 0 0
BITMAP
ENDCHAR
STARTCHAR 00FC
ENCODING 252
SWIDTH 531 0
DWIDTH 17 0
BBX 0 0 0 0
BITMAP
ENDCHAR
STARTCHAR 00FD
ENCODING 253
SWIDTH 500 0
DWIDTH 16 0
BBX 0 0 0 0
BITMAP
ENDCHAR
STARTCHAR 00FE
ENCODING 254
SWIDTH 531 0
DWIDTH 17 0
BBX 0 0 0 0
BITMAP
ENDCHAR
STARTCHAR 00FF
ENCODING 255
SWIDTH 500 0
DWIDTH 16 0
BBX 0 0 0 0
BITMAP
ENDCHAR
STARTCHAR 0131
ENCODING 305
SWIDTH 281 0
DWIDTH 9 0
BBX 0 0 0 0
BITMAP
ENDCHAR
STARTCHAR 0141
ENCODING 321
SWIDTH 593 0
DWIDTH 19 0
BBX 0 0 0 0
BITMAP
ENDCHAR
STARTCHAR 0142
ENCODING 322
SWIDTH 281 0
DWIDTH 9 0
BBX 0 0 0 0
BITMAP
ENDCHAR
STARTCHAR 0152
ENCODING 338
SWIDTH 968 0
DWIDTH 31 0
BBX 0 0 0 0
BITMAP
ENDCHAR
STARTCHAR 0153
ENCODING 339
SWIDTH 656 0
DWIDTH 21 0
BBX 0 0 0 0
BITMAP
ENDCHAR
STARTCHAR 0160
ENCODING 352
SWIDTH 750 0
DWIDTH 24 0
BBX 0 0 0 0
BITMAP
ENDCHAR
STARTCHAR 0161
ENCODING 353
SWIDTH 500 0
DWIDTH 16 0
BBX 0 0 0 0
BITMAP
ENDCHAR
STARTCHAR 0178
ENCODING 376
SWIDTH 750 0
DWIDTH 24 0
BBX 0 0 0 0
BITMAP
ENDCHAR
STARTCHAR 017D
ENCODING 381
SWIDTH 625 0
DWIDTH 20 0
BBX 0 0 0 0
BITMAP
ENDCHAR
STARTCHAR 017E
ENCODING 382
SWIDTH 375 0
DWIDTH 12 0
BBX 0 0 0 0
BITMAP
ENDCHAR
STARTCHAR 0192
ENCODING 402
SWIDTH 593 0
DWIDTH 19 0
BBX 21 29 -1 -7
BITMAP
000FE0
003E70
007CF8
00F8F8
00F8F0
00F800
00F800
00F800
01F800
01F800
01F800
1FFF80
01F000
01F000
01F000
01F000
01F000
01F000
01F000
01F000
01F000
01F000
01F000
01E000
F3E000
FBE000
F3C000
E7C000
3F0000
ENDCHAR
STARTCHAR 02BA
ENCODING 698
SWIDTH 1000 0
DWIDTH 32 0
BBX 0 0 0 0
BITMAP
ENDCHAR
STARTCHAR 02C6
ENCODING 710
SWIDTH 343 0
DWIDTH 11 0
BBX 0 0 0 0
BITMAP
ENDCHAR
STARTCHAR 02C7
ENCODING 711
SWIDTH 281 0
DWIDTH 9 0
BBX 0 0 0 0
BITMAP
ENDCHAR
STARTCHAR 02D8
ENCODING 728
SWIDTH 281 0
DWIDTH 9 0
BBX 0 0 0 0
BITMAP
ENDCHAR
STARTCHAR 02D9
ENCODING 729
SWIDTH 1000 0
DWIDTH 32 0
BBX 0 0 0 0
BITMAP
ENDCHAR
STARTCHAR 02DA
ENCODING 730
SWIDTH 281 0
DWIDTH 9 0
BBX 0 0 0 0
BITMAP
ENDCHAR
STARTCHAR 02DB
ENCODING 731
SWIDTH 1000 0
DWIDTH 32 0
BBX 0 0 0 0
BITMAP
ENDCHAR
STARTCHAR 02DC
ENCODING 732
SWIDTH 343 0
DWIDTH 11 0
BBX 0 0 0 0
BITMAP
ENDCHAR
STARTCHAR 2013
ENCODING 8211
SWIDTH 500 0
DWIDTH 16 0
BBX 15 3 0 7
BITMAP
FFFE
FFFE
FFFE
ENDCHAR
STARTCHAR 2014
ENCODING 8212
SWIDTH 750 0
DWIDTH 24 0
BBX 24 3 0 7
BITMAP
FFFFFF
FFFFFF
FFFFFF
ENDCHAR
STARTCHAR 2018
ENCODING 8216
SWIDTH 343 0
DWIDTH 11 0
BBX 6 11 3 12
BITMAP
10
10
20
20
20
70
70
FC
F8
70
20
ENDCHAR
STARTCHAR 2019
ENCODING 8217
SWIDTH 343 0
DWIDTH 11 0
BBX 6 11 2 9
BITMAP
10
38
7C
FC
38
38
10
10
20
20
40
ENDCHAR
STARTCHAR 201A
ENCODING 8218
SWIDTH 343 0
DWIDTH 11 0
BBX 7 12 2 -7
BITMAP
10
38
7C
FE
38
38
10
10
20
20
20
40
ENDCHAR
STARTCHAR 201C
ENCODING 8220
SWIDTH 593 0
DWIDTH 19 0
BBX 13 12 3 11
BITMAP
0008
0810
1020
1020
3020
3060
3060
70F0
FDF8
F8F0
3060
2000
ENDCHAR
STARTCHAR 201D
ENCODING 8221
SWIDTH 593 0
DWIDTH 19 0
BBX 13 12 3 9
BITMAP
2000
3060
F8F0
FDF8
70F0
7060
2060
2040
2040
4080
4080
8100
ENDCHAR
STARTCHAR 201E
ENCODING 8222
SWIDTH 593 0
DWIDTH 19 0
BBX 14 12 2 -6
BITMAP
1000
3830
7C78
FEFC
3C78
3830
1020
1020
1020
2040
2040
4080
ENDCHAR
STARTCHAR 2020
ENCODING 8224
SWIDTH 593 0
DWIDTH 19 0
BBX 17 29 1 -7
BITMAP
01C000
01E000
03E000
01E000
01E000
01C000
00C000
70C780
7C9F80
FFFF80
7E9F80
70C380
00C000
01E000
07F000
03F000
03F000
01E000
01E000
01E000
00C000
00C000
00C000
00C000
00C000
00C000
00C000
008000
008000
ENDCHAR
STARTCHAR 2021
ENCODING 8225
SWIDTH 593 0
DWIDTH 19 0
BBX 17 29 1 -7
BITMAP
01C000
01E000
03E000
01E000
01E000
01E000
00C000
70C380
7CCF80
FFFF80
7C9F80
70C380
01C000
03E000
07F000
01F000
01E000
70C380
7CCF80
FFFF80
7C9F80
70C380
00C000
01E000
01E000
01E000
03E000
01E000
00C000
ENDCHAR
STARTCHAR 2022
ENCODING 8226
SWIDTH 406 0
DWIDTH 13 0
BBX 9 10 2 5
BITMAP
0800
1800
1C00
3E00
FF80
FF80
3E00
1C00
1C00
0800
ENDCHAR
STARTCHAR 2026
ENCODING 8230
SWIDTH 968 0
DWIDTH 31 0
BBX 26 6 3 0
BITMAP
20000100
700C0300
F81E07C0
F81E07C0
700C0300
20000100
ENDCHAR
STARTCHAR 2030
ENCODING 8240
SWIDTH 968 0
DWIDTH 31 0
BBX 31 21 0 -1
BITMAP
1F008000
33C08000
73E10000
73E30000
F3E20000
F3E40000
73EC0000
73E80000
33D00000
1F100000
002F01F0
007DC79C
0079EF1C
00B9EF1E
01F9FF1E
0179FF1E
0279FF1E
0639EF1E
0439EF1C
081DC798
080F01F0
ENDCHAR
STARTCHAR 2039
ENCODING 8249
SWIDTH 281 0
DWIDTH 9 0
BBX 6 12 1 3
BITMAP
04
08
18
30
70
E0
E0
70
30
18
08
04
ENDCHAR
STARTCHAR 203A
ENCODING 8250
SWIDTH 281 0
DWIDTH 9 0
BBX 5 10 2 4
BITMAP
80
40
60
70
38
38
70
60
C0
80
ENDCHAR
STARTCHAR 2122
ENCODING 8482
SWIDTH 968 0
DWIDTH 31 0
BBX 28 11 1 11
BITMAP
3E23DCE0
7FADEFE0
87ECEEE0
840EEE70
8E0EEE60
6F06EEC0
0702EFC0
0200CFC0
3C008DC0
1F2338F0
07C25040
ENDCHAR
STARTCHAR 2215
ENCODING 8725
SWIDTH 187 0
DWIDTH 6 0
BBX 15 22 -4 0
BITMAP
0002
0006
0004
000C
0018
0010
0030
0060
0040
00C0
0180
0100
0200
0600
0400
0800
1800
1000
2000
6000
4000
8000
ENDCHAR
STARTCHAR 2219
ENCODING 8729
SWIDTH 187 0
DWIDTH 6 0
BBX 3 3 1 7
BITMAP
E0
E0
E0
ENDCHAR
STARTCHAR F000
ENCODING 61440
SWIDTH 1000 0
DWIDTH 32 0
BBX 0 0 0 0
BITMAP
ENDCHAR
STARTCHAR F001
ENCODING 61441
SWIDTH 593 0
DWIDTH 19 0
BBX 16 28 0 -7
BITMAP
0C80
1EC0
1F80
3F80
2780
3000
3C38
3FFE
3E7E
FE7C
3E7C
3E7C
1E7C
1E7C
1E7C
1E7C
1E7C
1E7C
1E7F
1E3E
1C3E
1C3C
0C18
0C00
0C00
0C00
0C00
0800
ENDCHAR
STARTCHAR F002
ENCODING 61442
SWIDTH 593 0
DWIDTH 19 0
BBX 18 28 0 -7
BITMAP
0E41C0
1F4780
1FCF00
3FBF00
37BE00
303E00
383E00
3FBE00
3FBE00
FFBE00
3E3E00
3E3E00
1E3E00
1E3E00
1E3E00
1E3E00
1E3E00
1E3E00
1E3F00
1E3FC0
1E1F00
1C0E00
0C0400
0C0000
0C0000
0C0000
0C0000
080000
ENDCHAR
ENDFONT
